<svg xmlns="http://www.w3.org/2000/svg" width="256" height="256">
  <g transform="translate(-1.535 -13.537)">
    <path fill="#e17d00" d="M194.966 113.627c0-35.093-28.449-63.542-63.542-63.542-35.094 0-66.131 28.449-66.131 63.542 0 13.253 6.646 25.558 13.586 35.741 11.437 16.782 30.704 27.801 52.545 27.801 35.093 0 63.542-28.449 63.542-63.542z"/>
    <path fill="none" d="M156.883 120.485h10.676v13.678h-10.676z"/>
    <circle cx="127.647" cy="106.716" r="63.542" fill="#fe8d00"/>
    <path fill="#005eaa" d="M165.797 66.628l-8.914 67.535h-46.585V65.755l-5.368-7.854-8.914 147.274H83.11l14.678 26.871 5.368 7.854 10.027-17.358 10.028-17.367-5.368-7.854h-7.544v-48.872H171.165V74.483z"/>
    <path fill="#008dfe" d="M151.515 140.595h14.282V66.628l-14.282-8.727v68.407H104.93V57.901l-14.282 8.727v130.693H77.741l10.027 17.367 10.019 17.358 10.027-17.358 10.028-17.367H104.93v-56.726z"/>
  </g>
</svg>
